<svg id="Layer_1" data-name="Layer 1" xmlns="http://www.w3.org/2000/svg" viewBox="0 0 128 128"><defs><style>.cls-1{fill:#b3b3b3;}.cls-2{fill:#fff;}.cls-3{fill:#ff5733;}</style></defs><path class="cls-1" d="M102.55,32.89v75.92a8,8,0,0,1-8,8H33.44a8,8,0,0,1-8-8V19a8,8,0,0,1,8-8H79.17Z"/><path class="cls-2" d="M79.17,24.9V11l23.38,21.93H87.16A8,8,0,0,1,79.17,24.9Z"/><path class="cls-3" d="M122.46,69.39,100.55,56.74a11.11,11.11,0,0,0-11.07,0L67.57,69.39A11.1,11.1,0,0,0,62,79v25.3a11.1,11.1,0,0,0,5.54,9.59l21.91,12.65a11.09,11.09,0,0,0,11.07,0l21.91-12.65a11.1,11.1,0,0,0,5.54-9.59V79A11.1,11.1,0,0,0,122.46,69.39Zm-11.81,6.54L95,85l-15.63-9L95,66.9ZM89.23,95v18L73.6,104V86Zm27.2-9v18l-15.63,9V95Z"/></svg>