<svg id="Layer_1" data-name="Layer 1" xmlns="http://www.w3.org/2000/svg" xmlns:xlink="http://www.w3.org/1999/xlink" viewBox="0 0 128 128"><defs><style>.cls-1,.cls-3{fill:#fff;}.cls-1{fill-rule:evenodd;}.cls-2{fill:#b3b3b3;}.cls-4{mask:url(#mask);}.cls-5{fill:#95002b;}.cls-6{fill:#d23361;}.cls-7{fill:#c70039;}</style><mask id="mask" x="62.38" y="62.76" width="65.62" height="65.24" maskUnits="userSpaceOnUse"><g id="mask0"><path class="cls-1" d="M108.92,127.72a4.11,4.11,0,0,0,3.26-.12l13.5-6.5a4.09,4.09,0,0,0,2.32-3.69v-44a4.1,4.1,0,0,0-2.32-3.7l-13.5-6.5a4.11,4.11,0,0,0-4.17.38,3.89,3.89,0,0,0-.49.42L81.67,87.54,70.41,79a2.72,2.72,0,0,0-3.48.16l-3.61,3.28a2.73,2.73,0,0,0,0,4l9.77,8.91-9.77,8.91a2.73,2.73,0,0,0,0,4l3.61,3.28a2.72,2.72,0,0,0,3.48.16l11.26-8.55,25.85,23.58A4.1,4.1,0,0,0,108.92,127.72Zm2.7-47.23L92,95.38l19.62,14.89Z"/></g></mask></defs><path class="cls-2" d="M102.55,32.89v75.92a8,8,0,0,1-8,8H33.44a8,8,0,0,1-8-8V19a8,8,0,0,1,8-8H79.17Z"/><path class="cls-3" d="M79.17,24.9V11l23.38,21.93H87.16A8,8,0,0,1,79.17,24.9Z"/><g class="cls-4"><path class="cls-5" d="M125.68,69.67l-13.51-6.5a4.06,4.06,0,0,0-4.66.79L63.27,104.29a2.73,2.73,0,0,0,0,4l3.61,3.28a2.73,2.73,0,0,0,3.49.16l53.27-40.41A2.71,2.71,0,0,1,128,73.52v-.16A4.09,4.09,0,0,0,125.68,69.67Z"/><path class="cls-6" d="M125.68,121.09l-13.51,6.5a4.06,4.06,0,0,1-4.66-.79L63.27,86.47a2.73,2.73,0,0,1,0-4l3.61-3.28A2.73,2.73,0,0,1,70.38,79l53.27,40.41a2.71,2.71,0,0,0,4.35-2.16v.16A4.09,4.09,0,0,1,125.68,121.09Z"/><path class="cls-7" d="M112.17,127.6a4.08,4.08,0,0,1-4.66-.8,2.4,2.4,0,0,0,4.1-1.69V65.66a2.4,2.4,0,0,0-4.1-1.7,4.08,4.08,0,0,1,4.66-.8l13.51,6.5a4.1,4.1,0,0,1,2.32,3.7v44.05a4.09,4.09,0,0,1-2.32,3.69Z"/></g></svg>