<svg id="Layer_1" data-name="Layer 1" xmlns="http://www.w3.org/2000/svg" viewBox="0 0 128 128"><defs><style>.cls-1{fill:#b3b3b3;}.cls-2{fill:#fff;}.cls-3{fill:#f32735;}</style></defs><path class="cls-1" d="M102.55,32.89v75.92a8,8,0,0,1-8,8H33.44a8,8,0,0,1-8-8V19a8,8,0,0,1,8-8H79.17Z"/><path class="cls-2" d="M79.17,24.9V11l23.38,21.93H87.16A8,8,0,0,1,79.17,24.9Z"/><rect class="cls-2" x="69.37" y="65.21" width="39.65" height="45.94" transform="translate(-36.23 88.9) rotate(-45)"/><path class="cls-3" d="M126.63,88.39,94.87,56.63a4.71,4.71,0,0,0-6.63,0l-6.59,6.6L90,71.6a5.56,5.56,0,0,1,7,7.09l8.06,8.06a5.57,5.57,0,1,1-3.33,3.14l-7.53-7.52v19.79a5.4,5.4,0,0,1,1.48,1A5.58,5.58,0,1,1,89.68,102V82a5.59,5.59,0,0,1-3-7.31l-8.25-8.25L56.63,88.24a4.69,4.69,0,0,0,0,6.63l31.76,31.76a4.69,4.69,0,0,0,6.63,0L126.63,95A4.69,4.69,0,0,0,126.63,88.39Z"/></svg>