<?xml version="1.0" encoding="utf-8"?>
<!-- Generator: Adobe Illustrator 27.5.0, SVG Export Plug-In . SVG Version: 6.00 Build 0)  -->
<svg version="1.1" id="Layer_1" xmlns="http://www.w3.org/2000/svg" xmlns:xlink="http://www.w3.org/1999/xlink" x="0px" y="0px"
	 viewBox="0 0 128 128" style="enable-background:new 0 0 128 128;" xml:space="preserve">
<style type="text/css">
	.st0{fill:#264DE4;}
	.st1{fill:#FFFFFF;}
</style>
<path class="st0" d="M93.6,105.2l-28.7,8.5c-0.6,0.2-1.3,0.2-1.9,0l-28.6-8.5c-1.3-0.4-2.2-1.5-2.4-2.9l-7.4-84.5
	c-0.2-1.9,1.4-3.6,3.3-3.6h72.2c1.9,0,3.5,1.7,3.3,3.6L96,102.3C95.8,103.6,94.9,104.8,93.6,105.2z"/>
<polygon class="st1" points="37.5,40.7 38.3,51.1 78.7,51.1 78,62.1 39.2,62.1 40.4,72.9 76.9,72.9 75.8,86.3 64.1,89.8 52,86.6 
	51.4,78 40.6,78 42.1,94.6 64.1,100.7 86,94.8 90.5,40.7 "/>
</svg>
