<svg id="Layer_1" data-name="Layer 1" xmlns="http://www.w3.org/2000/svg" viewBox="0 0 128 128"><defs><style>.cls-1{fill:#f29111;}.cls-2{fill:#00758f;}</style></defs><path class="cls-1" d="M68,71.09c7-3.76,7.41-7.7,3.08-15.53C66.29,46.94,73.84,42.1,81.53,37c-6.11,1.35-21.21,7-16.73,21,1.35,4.19,3.85,3.48,3.85,7.56A27,27,0,0,1,68,71.09Z"/><path class="cls-1" d="M62.59,68.73c4.48,2.53-21.43-17.4,3.27-27.59C75.47,37,75.86,21.79,73.45,17c-1.15,8.43-3.84,14.87-10.18,19.1S37.32,54.41,62.59,68.73Z"/><path class="cls-2" d="M83.93,86.12C99.5,84.1,105.07,66,87.58,69,93.93,71.51,98.83,75,83.93,86.12Z"/><path class="cls-2" d="M43.27,94.1C17.32,99.48,72,111.21,90.56,97.18c3.27,2.21,4.61,6.82-24.22,9.61C39.33,109.4,12.13,97.08,43.27,94.1Z"/><path class="cls-2" d="M51.83,90.26c0,3.2,8.36,4.42,19.8,1.92,1.82.86,2.5,1.82,5.28,3.07C71.53,99.87,31.55,97.27,51.83,90.26Z"/><path class="cls-2" d="M53.75,69C60,68.41,31,77.37,82.39,73.24c.87.68,1.44,1.06,2.6,2C74.69,82.66,9.15,74.78,53.75,69Z"/><path class="cls-2" d="M56.83,78.82C36,82.09,60.29,86.51,76.91,82.76c1.45.58,1.25,1.15,3.37,2C72.11,90.93,17.23,84.78,56.83,78.82Z"/><path class="cls-2" d="M41.86,108.4c19.89,1.87,41.73,1.8,53.77-6.2C95.2,108.69,60.81,116.61,41.86,108.4Z"/></svg>