<svg id="Layer_1" data-name="Layer 1" xmlns="http://www.w3.org/2000/svg" viewBox="0 0 128 128"><defs><style>.cls-1{fill:#b3b3b3;}.cls-2{fill:#fff;}.cls-3{fill:#303030;}</style></defs><path class="cls-1" d="M102.55,32.89v75.92a8,8,0,0,1-8,8H33.44a8,8,0,0,1-8-8V19a8,8,0,0,1,8-8H79.17Z"/><path class="cls-2" d="M79.17,24.9V11l23.38,21.93H87.16A8,8,0,0,1,79.17,24.9Z"/><rect class="cls-2" x="59.63" y="85.64" width="64.37" height="38.36" rx="3.25"/><path class="cls-3" d="M120.75,128H62.88a7.26,7.26,0,0,1-7.25-7.25V88.89a7.26,7.26,0,0,1,7.25-7.25h57.87A7.26,7.26,0,0,1,128,88.89v31.86A7.26,7.26,0,0,1,120.75,128Zm-57.12-8H120V89.64H63.63Z"/><path class="cls-3" d="M67.76,115.87V93.77h6.5l6.5,8.12,6.51-8.12h6.5v22.1h-6.5V103.2l-6.51,8.12-6.5-8.12v12.67Zm40.64,0-9.76-10.72h6.51V93.77h6.5v11.38h6.5Z"/></svg>