<svg id="Layer_1" data-name="Layer 1" xmlns="http://www.w3.org/2000/svg" viewBox="0 0 128 128"><defs><style>.cls-1{fill:#b3b3b3;}.cls-2{fill:#fff;}.cls-3{fill:#7fd6cb;}.cls-4{fill:#00afb9;}.cls-5{fill:#fee37a;}</style></defs><path class="cls-1" d="M102.55,32.89v75.92a8,8,0,0,1-8,8H33.44a8,8,0,0,1-8-8V19a8,8,0,0,1,8-8H79.17Z"/><path class="cls-2" d="M79.17,24.9V11l23.38,21.93H87.16A8,8,0,0,1,79.17,24.9Z"/><rect class="cls-3" x="49.97" y="69.47" width="74.19" height="54.69"/><polygon class="cls-4" points="46.13 128 76.33 89.8 88.59 103.33 95.44 94.75 128 128 46.13 128"/><path class="cls-2" d="M120.32,73.31v47H53.81v-47h66.51M128,65.63H46.13V128H128V65.63Z"/><circle class="cls-5" cx="105.11" cy="86.34" r="6.01"/></svg>