<svg id="Layer_1" data-name="Layer 1" xmlns="http://www.w3.org/2000/svg" viewBox="0 0 128 128"><defs><style>.cls-1{fill:#fff;}</style></defs><path class="cls-1" d="M11.51,50.4,12.6,37.94H47.7L48.8,50.4H46.35c-.13-1.44-.25-2.56-.35-3.33a14.21,14.21,0,0,0-.7-2.7,5.26,5.26,0,0,0-1.39-2.25,7.11,7.11,0,0,0-2.36-1.23,11.44,11.44,0,0,0-3.71-.52H33.9V70.45h8v2.43c-1.89-.1-5.78-.15-11.69-.15s-9.81,0-11.69.15V70.45h8V40.37h-4a11.35,11.35,0,0,0-3.73.54,7.24,7.24,0,0,0-2.37,1.26A5.24,5.24,0,0,0,15,44.4a15.3,15.3,0,0,0-.71,2.67c-.13.77-.25,1.89-.35,3.33Z"/><path class="cls-1" d="M44.15,90.06V87.63h5.63V57.27H44.15V54.84h32.4l1.6,12.49H75.71a29.2,29.2,0,0,0-.6-3.51A11.73,11.73,0,0,0,74,61.1,6.17,6.17,0,0,0,72.22,59a8.55,8.55,0,0,0-2.88-1.25,17.47,17.47,0,0,0-4.23-.45H57.19V70.59h2.88c2.32,0,3.82-.47,4.5-1.4a8.15,8.15,0,0,0,1-4.67H68V79.09H65.59a8.15,8.15,0,0,0-1-4.67c-.68-.93-2.18-1.4-4.5-1.4H57.19V87.63h7.92a22.39,22.39,0,0,0,4.15-.34,8.66,8.66,0,0,0,3-1.14,11.35,11.35,0,0,0,2.12-1.7,7.56,7.56,0,0,0,1.44-2.39,16.47,16.47,0,0,0,.83-2.83c.18-.9.4-2,.66-3.35h2.47L77.42,90.06Z"/><path class="cls-1" d="M75.19,73.46V71h1.5c1.07,0,2.13-.05,3.19-.15a5.52,5.52,0,0,0,1.54-.27,2.15,2.15,0,0,0,.7-.62L92.66,56.27,81.07,40.37H76V37.94q1.85.15,8.46.15,7.31,0,9.45-.15v2.43H89.53L97,50.58l6.88-9.07a2.42,2.42,0,0,0,.2-.28,2.33,2.33,0,0,1,.21-.28,16.16,16.16,0,0,0-4.79-.58V37.94q1.89.15,7.92.15,4.78,0,7-.15v2.43h-1.53a25.41,25.41,0,0,0-3,.15,7.83,7.83,0,0,0-1.69.24,2.06,2.06,0,0,0-.78.7L98.65,52.91,111.84,71H117v2.42q-1.83-.15-8.45-.15-7.32,0-9.43.15V71h4.33L94.32,58.55,85.71,69.9a2.81,2.81,0,0,0-.2.28c-.11.15-.17.24-.21.28a16.54,16.54,0,0,0,4.79.58v2.42q-1.89-.15-7.92-.15Q77.39,73.31,75.19,73.46Z"/></svg>