<svg id="Layer_1" data-name="Layer 1" xmlns="http://www.w3.org/2000/svg" viewBox="0 0 128 128"><defs><style>.cls-1{fill:#67217a;}.cls-2{fill:#b64ed2;}</style></defs><path class="cls-1" d="M69.08,60.06V68A1.13,1.13,0,0,1,68,69.1H60A1.13,1.13,0,0,1,58.85,68V60.06A1.12,1.12,0,0,1,60,58.94h8A1.12,1.12,0,0,1,69.08,60.06Z"/><path class="cls-1" d="M105.71,33.09,69,11.9a10,10,0,0,0-10,0L22.29,33.09a10,10,0,0,0-5,8.66V84.13a10,10,0,0,0,5,8.66L59,114a10,10,0,0,0,10,0l36.71-21.19a10,10,0,0,0,5-8.66V41.75A10,10,0,0,0,105.71,33.09ZM89.46,57.81a1.13,1.13,0,0,1-1.12,1.13h-8a1.12,1.12,0,0,0-1.12,1.12V68a1.13,1.13,0,0,0,1.12,1.13h8a1.12,1.12,0,0,1,1.12,1.12v7.92a1.13,1.13,0,0,1-1.12,1.13h-8a1.12,1.12,0,0,0-1.12,1.12V88.3a1.13,1.13,0,0,1-1.12,1.13H70.2a1.13,1.13,0,0,1-1.12-1.13V80.39A1.12,1.12,0,0,0,68,79.27H60a1.12,1.12,0,0,0-1.12,1.12V88.3a1.13,1.13,0,0,1-1.12,1.13H49.8a1.13,1.13,0,0,1-1.12-1.13V80.39a1.12,1.12,0,0,0-1.12-1.12h-7.9a1.13,1.13,0,0,1-1.12-1.13V70.22a1.12,1.12,0,0,1,1.12-1.12h7.9A1.13,1.13,0,0,0,48.68,68V60.06a1.12,1.12,0,0,0-1.12-1.12h-7.9a1.13,1.13,0,0,1-1.12-1.13V49.89a1.12,1.12,0,0,1,1.12-1.12h7.9a1.13,1.13,0,0,0,1.12-1.13v-8A1.12,1.12,0,0,1,49.8,38.5h7.93a1.12,1.12,0,0,1,1.12,1.12v8A1.13,1.13,0,0,0,60,48.77h8a1.13,1.13,0,0,0,1.12-1.13v-8A1.12,1.12,0,0,1,70.2,38.5h7.93a1.12,1.12,0,0,1,1.12,1.12v8a1.13,1.13,0,0,0,1.12,1.13h8a1.12,1.12,0,0,1,1.12,1.12Z"/><path class="cls-2" d="M80.37,58.94h8a1.13,1.13,0,0,0,1.12-1.13V49.89a1.12,1.12,0,0,0-1.12-1.12h-8a1.13,1.13,0,0,1-1.12-1.13v-8a1.12,1.12,0,0,0-1.12-1.12H70.2a1.12,1.12,0,0,0-1.12,1.12v8A1.13,1.13,0,0,1,68,48.77H60a1.13,1.13,0,0,1-1.12-1.13v-8a1.12,1.12,0,0,0-1.12-1.12H49.8a1.12,1.12,0,0,0-1.12,1.12v8a1.13,1.13,0,0,1-1.12,1.13h-7.9a1.12,1.12,0,0,0-1.12,1.12v7.92a1.13,1.13,0,0,0,1.12,1.13h7.9a1.12,1.12,0,0,1,1.12,1.12V68a1.13,1.13,0,0,1-1.12,1.13h-7.9a1.12,1.12,0,0,0-1.12,1.12v7.92a1.13,1.13,0,0,0,1.12,1.13h7.9a1.12,1.12,0,0,1,1.12,1.12V88.3a1.13,1.13,0,0,0,1.12,1.13h7.93a1.13,1.13,0,0,0,1.12-1.13V80.39A1.12,1.12,0,0,1,60,79.27h8a1.12,1.12,0,0,1,1.12,1.12V88.3a1.13,1.13,0,0,0,1.12,1.13h7.93a1.13,1.13,0,0,0,1.12-1.13V80.39a1.12,1.12,0,0,1,1.12-1.12h8a1.13,1.13,0,0,0,1.12-1.13V70.22a1.12,1.12,0,0,0-1.12-1.12h-8A1.13,1.13,0,0,1,79.25,68V60.06A1.12,1.12,0,0,1,80.37,58.94ZM69.08,68A1.13,1.13,0,0,1,68,69.1H60A1.13,1.13,0,0,1,58.85,68V60.06A1.12,1.12,0,0,1,60,58.94h8a1.12,1.12,0,0,1,1.12,1.12Z"/></svg>