<svg id="Layer_1" data-name="Layer 1" xmlns="http://www.w3.org/2000/svg" viewBox="0 0 128 128"><defs><style>.cls-1{fill:#b3b3b3;}.cls-2{fill:#fff;}</style></defs><path class="cls-1" d="M102.55,32.89v75.92a8,8,0,0,1-8,8H33.44a8,8,0,0,1-8-8V19a8,8,0,0,1,8-8H79.17Z"/><path class="cls-2" d="M79.17,24.9V11l23.38,21.93H87.16A8,8,0,0,1,79.17,24.9Z"/><path class="cls-2" d="M122.3,116.79a17.52,17.52,0,0,0,3.41,5c1.53,1.62,2.29,2.89,2.29,3.83V126c0,1.31-.78,2-2.34,2H98.48c-1.55,0-2.33-.65-2.33-2v-.37a3.05,3.05,0,0,1,.89-2,15.16,15.16,0,0,1,1.86-1.82,5.18,5.18,0,0,0,1.54-2.15,3.93,3.93,0,0,0,0-2.94L99,112.49H77.09l-1.49,4.3a3.93,3.93,0,0,0,0,2.94,5.27,5.27,0,0,0,1.54,2.15A15.22,15.22,0,0,1,79,123.7a3.1,3.1,0,0,1,.89,2V126c0,1.31-.78,2-2.34,2H62.34c-1.56,0-2.34-.65-2.34-2v-.37c0-.94.78-2.18,2.34-3.74a14.29,14.29,0,0,0,3.36-5.14L82.33,73.73c.56-1.49.1-3.36-1.36-5.6s-2.2-3.61-2.2-4.11v-.38c0-1.3.78-2,2.34-2H94.93q4.86,0,6.92,4.86ZM79.9,104.65H96.33L88.3,81Z"/></svg>