<svg id="Layer_1" data-name="Layer 1" xmlns="http://www.w3.org/2000/svg" viewBox="0 0 128 128"><defs><style>.cls-1{fill:#57c785;}.cls-2{fill:#ddf4e7;}.cls-3{fill:#9addb6;}</style></defs><rect class="cls-1" x="18.47" y="11.17" width="91.06" height="105.65" rx="8.58"/><path class="cls-2" d="M44.67,76.07h64.86a0,0,0,0,1,0,0V101.9a9.38,9.38,0,0,1-9.38,9.38h-62a6.74,6.74,0,0,1-6.74-6.74V89.29A13.22,13.22,0,0,1,44.67,76.07Z"/><path class="cls-3" d="M31.46,11.17h70.13a7.95,7.95,0,0,1,7.95,7.95V86.57a12,12,0,0,1-12,12H31.46a0,0,0,0,1,0,0V11.17A0,0,0,0,1,31.46,11.17Z"/></svg>