<svg id="Layer_1" data-name="Layer 1" xmlns="http://www.w3.org/2000/svg" viewBox="0 0 128 128"><defs><style>.cls-1{fill:#fff;}</style></defs><path class="cls-1" d="M108.11,98a27.12,27.12,0,0,0,5.28,7.82c2.37,2.51,3.55,4.48,3.55,5.93v.58q0,3-3.62,3H71.19q-3.63,0-3.63-3v-.58a4.79,4.79,0,0,1,1.38-3,22.6,22.6,0,0,1,2.9-2.82,8.26,8.26,0,0,0,2.39-3.33,6.18,6.18,0,0,0,0-4.56l-2.32-6.66H38L35.71,98a6.18,6.18,0,0,0,0,4.56,8.26,8.26,0,0,0,2.39,3.33,23.26,23.26,0,0,1,2.9,2.82,4.82,4.82,0,0,1,1.37,3v.58q0,3-3.62,3H15.15q-3.61,0-3.62-3v-.58q0-2.18,3.62-5.79a21.91,21.91,0,0,0,5.21-8L46.14,31.28C47,29,46.3,26.06,44,22.59s-3.41-5.6-3.41-6.37v-.58q0-3,3.62-3H65.68q7.53,0,10.72,7.53ZM42.37,79.2H67.85L55.4,42.57Z"/></svg>