<?xml version="1.0" encoding="utf-8"?>
<!-- Generator: Adobe Illustrator 27.5.0, SVG Export Plug-In . SVG Version: 6.00 Build 0)  -->
<svg version="1.1" id="Layer_1" xmlns="http://www.w3.org/2000/svg" xmlns:xlink="http://www.w3.org/1999/xlink" x="0px" y="0px"
	 viewBox="0 0 128 128" style="enable-background:new 0 0 128 128;" xml:space="preserve">
<style type="text/css">
	.st0{fill:#B3B3B3;}
	.st1{fill:#FFFFFF;}
</style>
<path class="st0" d="M102.5,33.1v76c0,4.4-3.6,8-8,8H33.4c-4.4,0-8-3.6-8-8V19.2c0-4.4,3.6-8,8-8h45.8L102.5,33.1z"/>
<g>
	<path class="st1" d="M83.9,79.1c-9.4,0-19.6,6.7-19.6,24.5s10,24.5,19.6,24.5c9.6,0,19.6-6.7,19.9-24.5
		C103.8,85.8,93.5,79.1,83.9,79.1z M83.9,117.5c-6.5,0-8.8-6.5-8.8-14s2.3-14,8.8-14c6.5,0,8.8,6.5,8.8,14
		C92.7,111.3,90.4,117.5,83.9,117.5z"/>
	<path class="st1" d="M128,80.6v45.4c0,0.6-0.4,1-1,1h-9.2c-0.6,0-1-0.4-1-1V89.1h-8.2c-0.6,0-1-0.4-1-1v-7.5c0-0.6,0.6-1,1-1H127
		C127.6,79.5,128,79.9,128,80.6z"/>
</g>
<path class="st1" d="M79.2,25.1V11.2l23.4,21.9H87.2C82.7,33.1,79.2,29.5,79.2,25.1L79.2,25.1z"/>
<path class="st1" d="M79.2,25.1V11.2l23.4,21.9H87.2C82.7,33.1,79.2,29.5,79.2,25.1L79.2,25.1z"/>
</svg>
