<?xml version="1.0" encoding="utf-8"?>
<!-- Generator: Adobe Illustrator 27.5.0, SVG Export Plug-In . SVG Version: 6.00 Build 0)  -->
<svg version="1.1" id="Layer_1" xmlns="http://www.w3.org/2000/svg" xmlns:xlink="http://www.w3.org/1999/xlink" x="0px" y="0px"
	 viewBox="0 0 128 128" style="enable-background:new 0 0 128 128;" xml:space="preserve">
<style type="text/css">
	.st0{fill:#F9CF00;}
	.st1{fill:#FFFFFF;}
</style>
<path class="st0" d="M93.6,105.7l-28.7,8.5c-0.6,0.2-1.3,0.2-1.9,0l-28.7-8.5c-1.3-0.4-2.3-1.5-2.4-2.9l-7.4-84.5
	c-0.2-1.9,1.4-3.6,3.3-3.6H100c2,0,3.5,1.7,3.3,3.6L96,102.8C95.8,104.1,94.9,105.3,93.6,105.7z"/>
<g>
	<polygon class="st1" points="67.7,44.7 67.7,80.3 82.5,78.5 81.4,90.2 67.7,94.1 67.7,103.7 89.2,97.9 92,67.7 76.8,70 76.8,53.9 
		93.1,53.8 94,44.7 	"/>
	<polygon class="st1" points="51.9,44.7 51.9,91.8 36,87 36,96.8 60.9,103.7 61.4,44.7 	"/>
</g>
</svg>
