<svg id="Layer_1" data-name="Layer 1" xmlns="http://www.w3.org/2000/svg" viewBox="0 0 128 128"><defs><style>.cls-1{fill:#303030;}.cls-2{fill:#505050;}</style></defs><path class="cls-1" d="M116.71,64.23c0,.46,0,.91,0,1.36A35.57,35.57,0,0,1,64,95.42,35.58,35.58,0,1,0,11.32,62.88a52.7,52.7,0,0,1,105.36,0C116.69,63.33,116.71,63.78,116.71,64.23Z"/><path class="cls-2" d="M116.68,65.59a52.7,52.7,0,0,1-105.36,0c0-.45,0-.9,0-1.36s0-.9,0-1.35A35.57,35.57,0,0,1,64,33.05a35.58,35.58,0,1,0,52.68,32.54Z"/></svg>