<?xml version="1.0" encoding="utf-8"?>
<!-- Generator: Adobe Illustrator 27.5.0, SVG Export Plug-In . SVG Version: 6.00 Build 0)  -->
<svg version="1.1" id="Layer_1" xmlns="http://www.w3.org/2000/svg" xmlns:xlink="http://www.w3.org/1999/xlink" x="0px" y="0px"
	 viewBox="0 0 128 128" style="enable-background:new 0 0 128 128;" xml:space="preserve">
<style type="text/css">
	.st0{fill:#E44D26;}
	.st1{fill:#FFFFFF;}
</style>
<path class="st0" d="M93.7,105.2L65,113.7c-0.6,0.2-1.3,0.2-1.9,0l-28.7-8.5c-1.3-0.4-2.3-1.5-2.4-2.9l-7.4-84.5
	c-0.2-1.9,1.4-3.6,3.3-3.6h72.2c2,0,3.5,1.7,3.3,3.6l-7.3,84.5C95.9,103.6,95,104.8,93.7,105.2z"/>
<polygon class="st1" points="90.9,51 91.8,39.6 36.2,39.6 39.2,73.6 77.7,73.6 76.5,87.8 64,91.5 51.2,87.8 50.8,79 39.4,79 
	41.1,96.4 64.1,103 86.9,96.8 89.9,62.3 49.2,62.5 48.3,50.9 "/>
</svg>
