<svg id="Layer_1" data-name="Layer 1" xmlns="http://www.w3.org/2000/svg" viewBox="0 0 128 128"><defs><style>.cls-1{fill:#00599c;}.cls-2{fill:#669bc4;}</style></defs><path class="cls-1" d="M105.71,33.09,69,11.9a10,10,0,0,0-10,0L22.29,33.09a10,10,0,0,0-5,8.66V84.13a10,10,0,0,0,5,8.66L59,114a10,10,0,0,0,10,0l36.71-21.19a10,10,0,0,0,5-8.66V41.75A10,10,0,0,0,105.71,33.09Zm-17.32,38a1.15,1.15,0,0,1-1.15,1.16H73.42a1.14,1.14,0,0,0-1.15,1.15V87.24a1.15,1.15,0,0,1-1.16,1.15H56.89a1.15,1.15,0,0,1-1.16-1.15V73.42a1.14,1.14,0,0,0-1.15-1.15H40.76a1.15,1.15,0,0,1-1.15-1.16V56.89a1.15,1.15,0,0,1,1.15-1.16H54.58a1.14,1.14,0,0,0,1.15-1.15V40.76a1.15,1.15,0,0,1,1.16-1.15H71.11a1.15,1.15,0,0,1,1.16,1.15V54.58a1.14,1.14,0,0,0,1.15,1.15H87.24a1.15,1.15,0,0,1,1.15,1.16Z"/><path class="cls-2" d="M87.24,55.73H73.42a1.14,1.14,0,0,1-1.15-1.15V40.76a1.15,1.15,0,0,0-1.16-1.15H56.89a1.15,1.15,0,0,0-1.16,1.15V54.58a1.14,1.14,0,0,1-1.15,1.15H40.76a1.15,1.15,0,0,0-1.15,1.16V71.11a1.15,1.15,0,0,0,1.15,1.16H54.58a1.14,1.14,0,0,1,1.15,1.15V87.24a1.15,1.15,0,0,0,1.16,1.15H71.11a1.15,1.15,0,0,0,1.16-1.15V73.42a1.14,1.14,0,0,1,1.15-1.15H87.24a1.15,1.15,0,0,0,1.15-1.16V56.89A1.15,1.15,0,0,0,87.24,55.73Z"/></svg>