<svg id="Layer_1" data-name="Layer 1" xmlns="http://www.w3.org/2000/svg" viewBox="0 0 128 128"><defs><style>.cls-1{fill:#00599c;}.cls-2{fill:#669bc4;}</style></defs><path class="cls-1" d="M64,20.56l36.71,21.19V84.13L64,105.32,27.29,84.13V41.75L64,20.56m0-10a9.92,9.92,0,0,0-5,1.34L22.29,33.09a10,10,0,0,0-5,8.66V84.13a10,10,0,0,0,5,8.66L59,114a10,10,0,0,0,10,0l36.71-21.19a10,10,0,0,0,5-8.66V41.75a10,10,0,0,0-5-8.66L69,11.9a9.92,9.92,0,0,0-5-1.34Z"/><path class="cls-2" d="M59.06,80.94h9.88a.8.8,0,0,0,.8-.8v-9.6a.8.8,0,0,1,.8-.8h9.6a.8.8,0,0,0,.8-.8V59.06a.8.8,0,0,0-.8-.8h-9.6a.8.8,0,0,1-.8-.8v-9.6a.8.8,0,0,0-.8-.8H59.06a.8.8,0,0,0-.8.8v9.6a.8.8,0,0,1-.8.8h-9.6a.8.8,0,0,0-.8.8v9.88a.8.8,0,0,0,.8.8h9.6a.8.8,0,0,1,.8.8v9.6A.8.8,0,0,0,59.06,80.94Z"/></svg>