<svg id="Layer_1" data-name="Layer 1" xmlns="http://www.w3.org/2000/svg" viewBox="0 0 128 128"><defs><style>.cls-1{fill:#606060;}.cls-2{fill:#b3b3b3;}.cls-3{fill:#c70039;}.cls-4{fill:#95002b;}</style></defs><path class="cls-1" d="M46.2,40.74l-9.3-9.3a7.12,7.12,0,0,0-5-2.07H18.37a7.08,7.08,0,0,0-7.08,7.08V103A7.08,7.08,0,0,0,18.37,110h80a7.08,7.08,0,0,0,7.08-7.08V49.89a7.07,7.07,0,0,0-7.08-7.07H51.2A7,7,0,0,1,46.2,40.74Z"/><rect class="cls-2" x="20.12" y="53.34" width="85.3" height="56.7" rx="7.63"/><rect class="cls-3" x="62.76" y="42.82" width="19.19" height="67.14"/><rect class="cls-4" x="65.58" y="46.57" width="13.57" height="4.83" rx="2.41"/><rect class="cls-4" x="65.58" y="55.62" width="13.57" height="4.83" rx="2.41"/><rect class="cls-4" x="65.58" y="64.67" width="13.57" height="4.83" rx="2.41"/><rect class="cls-4" x="65.58" y="73.73" width="13.57" height="4.83" rx="2.41"/><rect class="cls-4" x="65.58" y="82.78" width="13.57" height="4.83" rx="2.41"/><rect class="cls-4" x="65.58" y="91.84" width="13.57" height="4.83" rx="2.41"/><rect class="cls-4" x="65.58" y="100.89" width="13.57" height="4.83" rx="2.41"/><rect class="cls-4" x="70.47" y="42.82" width="3.78" height="67.14"/></svg>