<?xml version="1.0" encoding="utf-8"?>
<!-- Generator: Adobe Illustrator 27.5.0, SVG Export Plug-In . SVG Version: 6.00 Build 0)  -->
<svg version="1.1" id="Layer_1" xmlns="http://www.w3.org/2000/svg" xmlns:xlink="http://www.w3.org/1999/xlink" x="0px" y="0px"
	 viewBox="0 0 128 128" style="enable-background:new 0 0 128 128;" xml:space="preserve">
<style type="text/css">
	.st0{fill:#CCCCCC;}
	.st1{fill:#008461;}
	.st2{fill:#4C4C4C;}
	.st3{fill:#C99900;}
	.st4{fill:none;stroke:#CCCCCC;stroke-width:3;stroke-miterlimit:10;}
</style>
<path class="st0" d="M38,13.9h52c1.3,0,2.4,1.2,2.4,2.7v94.2c0,1.4-1.1,2.7-2.4,2.7H38c-1.3,0-2.4-1.2-2.4-2.7V16.5
	C35.6,15.1,36.7,13.9,38,13.9z"/>
<path class="st0" d="M12,89.4V37.7c0-1.4,1.4-2.6,3-2.6h97.9c1.6,0,3,1.2,3,2.6v51.7c0,1.4-1.4,2.6-3,2.6H15.1
	C13.4,92,12,90.9,12,89.4z"/>
<path class="st1" d="M95.3,101.3H32.7c-3.3,0-6-2.7-6-6V32.7c0-3.3,2.7-6,6-6h62.6c3.3,0,6,2.7,6,6v62.6
	C101.3,98.6,98.6,101.3,95.3,101.3z"/>
<path class="st2" d="M86.7,91.6H41.3c-2.7,0-4.9-2.2-4.9-4.9V41.3c0-2.7,2.2-4.9,4.9-4.9h45.5c2.7,0,4.9,2.2,4.9,4.9v45.5
	C91.6,89.4,89.4,91.6,86.7,91.6z"/>
<path class="st3" d="M73.4,77.8H54.6c-2.4,0-4.4-2-4.4-4.4V54.6c0-2.4,2-4.4,4.4-4.4h18.8c2.4,0,4.4,2,4.4,4.4v18.8
	C77.8,75.8,75.8,77.8,73.4,77.8z"/>
<path class="st4" d="M54.9,59.9"/>
<path class="st4" d="M41.4,59.9"/>
<path class="st4" d="M54.9,68.9"/>
<path class="st4" d="M41.4,68.9"/>
</svg>
