<svg id="Layer_1" data-name="Layer 1" xmlns="http://www.w3.org/2000/svg" viewBox="0 0 128 128"><defs><style>.cls-1{fill:#8579a8;}.cls-2{fill:#5d5086;}.cls-3{fill:#453b60;}.cls-4{fill:#8f4d8b;}</style></defs><polygon class="cls-1" points="92.21 97.73 77.77 97.73 64.99 78.48 62.62 74.92 68.12 66.64 69.84 64.05 71.56 66.64 79.43 78.48 92.21 97.73"/><polygon class="cls-2" points="69.84 64.05 62.62 74.92 47.47 97.73 33.03 97.73 55.4 64.05 53.68 61.46 45.82 49.62 33.03 30.36 47.47 30.36 60.26 49.62 62.62 53.18 68.12 61.46 69.84 64.05"/><polygon class="cls-3" points="48.33 64.05 41.12 74.92 25.97 97.73 11.53 97.73 33.9 64.05 11.53 30.37 25.97 30.37 41.12 53.18 48.33 64.05"/><polygon class="cls-4" points="114.31 49.62 114.31 61.46 74.51 61.46 69.02 53.18 66.65 49.62 114.31 49.62"/><polygon class="cls-4" points="115.47 66.64 115.47 78.48 85.82 78.48 77.96 66.64 115.47 66.64"/></svg>