<svg id="Layer_1" data-name="Layer 1" xmlns="http://www.w3.org/2000/svg" viewBox="0 0 128 128"><defs><style>.cls-1{fill:#606060;}.cls-2{fill:#b3b3b3;}.cls-3{fill:#3899e6;}.cls-4{fill:#60c6ee;}</style></defs><path class="cls-1" d="M46.2,40.74l-9.3-9.3a7.12,7.12,0,0,0-5-2.07H18.37a7.08,7.08,0,0,0-7.08,7.08V103A7.08,7.08,0,0,0,18.37,110h80a7.08,7.08,0,0,0,7.08-7.08V49.89a7.07,7.07,0,0,0-7.08-7.07H51.2A7,7,0,0,1,46.2,40.74Z"/><rect class="cls-2" x="20.12" y="53.34" width="85.3" height="56.7" rx="7.63"/><path class="cls-3" d="M127.89,86.23a2,2,0,0,1-.47,1.32l-31.7,39.66a2.13,2.13,0,0,1-3.31,0L60.7,87.55a2.08,2.08,0,0,1-.46-1.32Z"/><path class="cls-4" d="M127.89,86.23H60.24a2.13,2.13,0,0,1,.46-1.33L70.2,73a2.08,2.08,0,0,1,1.65-.79h44.42a2.1,2.1,0,0,1,1.66.79l9.49,11.87A2.08,2.08,0,0,1,127.89,86.23Z"/></svg>