<svg id="Layer_1" data-name="Layer 1" xmlns="http://www.w3.org/2000/svg" viewBox="0 0 128 128"><defs><style>.cls-1{fill:#606060;}.cls-2{fill:#b3b3b3;}.cls-3{fill:#5a1ea4;}</style></defs><path class="cls-1" d="M46.2,40.74l-9.3-9.3a7.12,7.12,0,0,0-5-2.07H18.37a7.08,7.08,0,0,0-7.08,7.08V103A7.08,7.08,0,0,0,18.37,110h80a7.08,7.08,0,0,0,7.08-7.08V49.89a7.07,7.07,0,0,0-7.08-7.07H51.2A7,7,0,0,1,46.2,40.74Z"/><rect class="cls-2" x="20.12" y="53.34" width="85.3" height="56.7" rx="7.63"/><path class="cls-3" d="M47.71,117.18a3.5,3.5,0,0,1-1.85-.53l-22.37-13.9a3.49,3.49,0,0,1-1.65-3V93.34a3.5,3.5,0,0,1,1.66-3L46,76.41a3.51,3.51,0,0,1,4.8,1.1l4,6.26a3.49,3.49,0,0,1-1.19,4.9L40.17,96.5l13.39,7.68a3.49,3.49,0,0,1,1.66,2.2,3.55,3.55,0,0,1-.45,2.71l-4.11,6.46A3.48,3.48,0,0,1,47.71,117.18Z"/><path class="cls-3" d="M64.54,124.5a3.49,3.49,0,0,0,3.15-2L91.79,72.4a3.51,3.51,0,0,0,.13-2.7,3.47,3.47,0,0,0-1.83-2L83,64.46a3.39,3.39,0,0,0-1.45-.32,3.52,3.52,0,0,0-3.16,2L54.29,116.24a3.5,3.5,0,0,0,1.7,4.7l7.09,3.24A3.44,3.44,0,0,0,64.54,124.5Z"/><path class="cls-3" d="M98.37,117.18a3.5,3.5,0,0,1-2.92-1.57l-4.1-6.17a3.45,3.45,0,0,1-.5-2.72,3.53,3.53,0,0,1,1.64-2.24l13.45-7.9L92.53,89a3.51,3.51,0,0,1-1.25-4.88l4-6.52A3.49,3.49,0,0,1,97.48,76a3.57,3.57,0,0,1,.8-.09,3.42,3.42,0,0,1,1.84.52l22.46,13.9a3.5,3.5,0,0,1,1.66,3v6.49a3.51,3.51,0,0,1-1.65,3l-22.38,13.9A3.44,3.44,0,0,1,98.37,117.18Z"/></svg>