<svg id="Layer_1" data-name="Layer 1" xmlns="http://www.w3.org/2000/svg" xmlns:xlink="http://www.w3.org/1999/xlink" viewBox="0 0 128 128"><defs><style>.cls-1{fill:#fff;fill-rule:evenodd;}.cls-2{fill:#606060;}.cls-3{fill:#b3b3b3;}.cls-4{mask:url(#mask);}.cls-5{fill:#95002b;}.cls-6{fill:#d23361;}.cls-7{fill:#c70039;}</style><mask id="mask" x="45.01" y="49.38" width="79.08" height="78.62" maskUnits="userSpaceOnUse"><g id="mask0"><path class="cls-1" d="M101.1,127.66a4.88,4.88,0,0,0,3.92-.15l16.27-7.83a4.94,4.94,0,0,0,2.8-4.45V62.15a4.94,4.94,0,0,0-2.8-4.45L105,49.87a4.92,4.92,0,0,0-5,.45,5.47,5.47,0,0,0-.58.5L68.26,79.24,54.69,68.94a3.28,3.28,0,0,0-4.2.19l-4.35,4a3.29,3.29,0,0,0,0,4.87L57.9,88.69,46.13,99.42a3.29,3.29,0,0,0,0,4.87l4.35,4a3.28,3.28,0,0,0,4.2.19l13.57-10.3,31.15,28.42A4.89,4.89,0,0,0,101.1,127.66Zm3.24-56.91L80.71,88.69l23.63,17.94Z"/></g></mask></defs><path class="cls-2" d="M46.2,40.74l-9.3-9.3a7.12,7.12,0,0,0-5-2.07H18.37a7.08,7.08,0,0,0-7.08,7.08V103A7.08,7.08,0,0,0,18.37,110h80a7.08,7.08,0,0,0,7.08-7.08V49.89a7.07,7.07,0,0,0-7.08-7.07H51.2A7,7,0,0,1,46.2,40.74Z"/><rect class="cls-3" x="20.12" y="53.34" width="85.3" height="56.7" rx="7.63"/><g class="cls-4"><path class="cls-5" d="M121.29,57.71,105,49.87a4.92,4.92,0,0,0-5.62,1l-53.3,48.6a3.29,3.29,0,0,0,0,4.87l4.35,4a3.29,3.29,0,0,0,4.21.19l64.19-48.7a3.27,3.27,0,0,1,5.25,2.61v-.19A4.94,4.94,0,0,0,121.29,57.71Z"/><path class="cls-6" d="M121.29,119.67,105,127.51a4.92,4.92,0,0,1-5.62-1L46.09,78a3.29,3.29,0,0,1,0-4.87l4.35-4a3.29,3.29,0,0,1,4.21-.19l64.19,48.7a3.27,3.27,0,0,0,5.25-2.61v.19A4.94,4.94,0,0,1,121.29,119.67Z"/><path class="cls-7" d="M105,127.51a4.92,4.92,0,0,1-5.62-1,2.9,2.9,0,0,0,4.94-2V52.87a2.9,2.9,0,0,0-4.94-2,4.92,4.92,0,0,1,5.62-1l16.28,7.83a4.94,4.94,0,0,1,2.8,4.45v53.08a4.94,4.94,0,0,1-2.8,4.45Z"/></g></svg>