<svg id="Layer_1" data-name="Layer 1" xmlns="http://www.w3.org/2000/svg" viewBox="0 0 128 128"><defs><style>.cls-1{fill:#606060;}.cls-2{fill:#b3b3b3;}.cls-3{fill:#ffc300;}</style></defs><path class="cls-1" d="M46.2,40.74l-9.3-9.3a7.12,7.12,0,0,0-5-2.07H18.37a7.08,7.08,0,0,0-7.08,7.08V103A7.08,7.08,0,0,0,18.37,110h80a7.08,7.08,0,0,0,7.08-7.08V49.89a7.07,7.07,0,0,0-7.08-7.07H51.2A7,7,0,0,1,46.2,40.74Z"/><rect class="cls-2" x="20.12" y="53.34" width="85.3" height="56.7" rx="7.63"/><path class="cls-3" d="M40.47,119a3.5,3.5,0,0,1-1.85-.53l-22.37-13.9a3.51,3.51,0,0,1-1.65-3V95.17a3.52,3.52,0,0,1,1.66-3l22.51-14a3.44,3.44,0,0,1,1.84-.53,3.5,3.5,0,0,1,3,1.63l4,6.26a3.49,3.49,0,0,1-1.2,4.89L32.93,98.33,46.32,106a3.5,3.5,0,0,1,1.21,4.92l-4.1,6.46A3.5,3.5,0,0,1,40.47,119Z"/><path class="cls-3" d="M102.13,119a3.52,3.52,0,0,1-2.92-1.56l-4.1-6.18a3.49,3.49,0,0,1,1.14-5L109.7,98.4,96.29,90.77A3.5,3.5,0,0,1,95,85.89l4-6.52a3.53,3.53,0,0,1,2.18-1.57,3.57,3.57,0,0,1,.8-.09,3.51,3.51,0,0,1,1.84.52l22.46,13.9a3.52,3.52,0,0,1,1.66,3v6.49a3.49,3.49,0,0,1-1.65,3L104,118.47A3.5,3.5,0,0,1,102.13,119Z"/><path class="cls-3" d="M67,116.71a4,4,0,0,1-4-4V104.9H55.5a4,4,0,0,1-4-4v-7a4,4,0,0,1,4-4H63V82.09a4,4,0,0,1,4-4h7.58a4,4,0,0,1,4,4V89.9h7.58a4,4,0,0,1,4,4v7a4,4,0,0,1-4,4H78.59v7.81a4,4,0,0,1-4,4Z"/></svg>